<svg xmlns="http://www.w3.org/2000/svg" width="460" height="1115" viewBox="0 0 460 1115"><rect x="0" y="0" width="460" height="1115" fill="white"/><g font-family="sans-serif"><g><text x="30" y="45" font-size="18" fill="#202735">Original</text><rect x="30" y="80" width="375" height="275" fill="none" stroke="#cad0d8" stroke-dasharray="4 4"/><polyline points="80,305 80,205 130,155 280,155" fill="none" stroke="#e54b58" stroke-width="10" stroke-linejoin="round"/><line x1="280" y1="155" x2="405" y2="155" stroke="#2869c7" stroke-width="10"/><circle cx="80" cy="305" r="15" fill="#f2a6ad"/><circle cx="280" cy="155" r="20" fill="#2869c7"/><circle cx="280" cy="155" r="10" fill="white"/></g><g><text x="30" y="395" font-size="18" fill="#202735">Inward first via</text><rect x="30" y="430" width="375" height="275" fill="none" stroke="#cad0d8" stroke-dasharray="4 4"/><polyline points="80,655 80,555 130,505 229.999,505" fill="none" stroke="#e54b58" stroke-width="10" stroke-linejoin="round"/><line x1="229.999" y1="505" x2="405" y2="505" stroke="#2869c7" stroke-width="10"/><circle cx="80" cy="655" r="15" fill="#f2a6ad"/><circle cx="229.999" cy="505" r="20" fill="#2869c7"/><circle cx="229.999" cy="505" r="10" fill="white"/></g><g><text x="30" y="745" font-size="18" fill="#202735">Outward first via</text><rect x="30" y="780" width="375" height="275" fill="none" stroke="#cad0d8" stroke-dasharray="4 4"/><polyline points="80,1005 80,905 130,855 330.001,855" fill="none" stroke="#e54b58" stroke-width="10" stroke-linejoin="round"/><line x1="330.001" y1="855" x2="405" y2="855" stroke="#2869c7" stroke-width="10"/><circle cx="80" cy="1005" r="15" fill="#f2a6ad"/><circle cx="330.001" cy="855" r="20" fill="#2869c7"/><circle cx="330.001" cy="855" r="10" fill="white"/></g><text x="30" y="1090" font-size="13" fill="#394457">Earlier source segments, via size and layers stay fixed.</text></g></svg>